# xmcd
#
# Track frame offsets:
#	150
#	12145
#	28220
#	42337
#	56292
#	71027
#	87630
#	101075
#	114320
#	130682
#	147790
#	161800
#	178710
#	196182
#	213357
#	233202
#	246712
#	256505
#	283965
#
# Disc length: 4440 seconds
#
# Revision: 1
# Processed by: cddbd v1.5PL3 Copyright (c) Steve Scherf et al.
# Submitted via: audiograbber 1.81.03
#
DISCID=16115613
DTITLE=Tom Astor - Schlager and Stars
DYEAR=2003
DGENRE=Country
TTITLE0=Hallo guten Morgen Detschland
TTITLE1=Junger Adler´93 (Ein Lied für (m)einen Sohn)
TTITLE2=Take It Easy - nimms leicht
TTITLE3=Ich bin kein Dichter, kein Poet
TTITLE4=Renovier deine Seele
TTITLE5=Freundschaft
TTITLE6=Kleiner Rebell
TTITLE7=Hungrige Herzen
TTITLE8=Irgendwie wird´s schon geh´n
TTITLE9=Respekt vor deiner Schwäche
TTITLE10=Ehrlichkeit
TTITLE11=Dieser Tag kann dein Tag sein
TTITLE12=mit deiner starken Frau
TTITLE13=Lucille
TTITLE14=Der Feigling
TTITLE15=Wer hat ein Herz, das niemals bricht (Some Broken Hearts Never Mind)
TTITLE16=Adios Amigo
TTITLE17=Doch ich habe dich geliebt (Always On My Mind)
TTITLE18=Daten-CD
EXTD=Country Deutsc
EXTT0=
EXTT1=
EXTT2=
EXTT3=
EXTT4=
EXTT5=
EXTT6=
EXTT7=
EXTT8=
EXTT9=
EXTT10=
EXTT11=
EXTT12=
EXTT13=
EXTT14=
EXTT15=
EXTT16=
EXTT17=
EXTT18=
PLAYORDER=
